<svg xmlns="http://www.w3.org/2000/svg" viewBox="0 0 659.25 95.32"><defs><style>.cls-1{fill:#fff;}</style></defs><title>logo-type</title><g><g><circle class="cls-1" cx="121.62" cy="48.45" r="11.05"/><circle class="cls-1" cx="147.67" cy="48.45" r="11.05"/><circle class="cls-1" cx="44.68" cy="48.45" r="14.09"/><circle class="cls-1" cx="292.72" cy="26.06" r="14.09"/><circle class="cls-1" cx="338.57" cy="81.23" r="14.09"/><circle class="cls-1" cx="462.13" cy="81.23" r="14.09"/><circle class="cls-1" cx="643.37" cy="54.06" r="14.09"/><rect class="cls-1" x="312.37" y="27.48" width="52.41" height="17.95" rx="8.97" transform="translate(375.03 -302.12) rotate(90)"/><path class="cls-1" d="M34.7,94.56A8.95,8.95,0,0,1,32.13,77c30.56-9.19,38-30.42,39.55-48.61H34.8C28.1,44.28,14.73,53.8,14.09,54.25A9,9,0,0,1,3.78,39.61c.17-.12,12.5-9.06,16-22.39a9,9,0,0,1,8.66-6.69H81a9,9,0,0,1,9,9c0,39.06-17.71,64.2-52.65,74.7A8.86,8.86,0,0,1,34.7,94.56Z"/><path class="cls-1" d="M136.63,94.56a9,9,0,1,1,0-17.9c8.89,0,27.71-14.17,27.71-29.95a9,9,0,1,1,17.9,0C182.24,73.12,154.64,94.56,136.63,94.56Z"/><path class="cls-1" d="M273.9,26.06A18.72,18.72,0,0,1,278,14.42a8.93,8.93,0,0,0-4-1H209.23a8.95,8.95,0,1,0,0,17.9h55.22c-4.54,37.83-37.41,45.14-39,45.47a9,9,0,0,0,1.75,17.73,8.53,8.53,0,0,0,1.73-.17,71.11,71.11,0,0,0,27.13-13c9.63-7.46,20.71-20.14,25-40.56A18.77,18.77,0,0,1,273.9,26.06Z"/><path class="cls-1" d="M372.58,93.64a9,9,0,0,1-8.95-9V19.22a8.95,8.95,0,1,1,17.9,0V74c14-5.72,18.57-23.78,18.62-24a9,9,0,1,1,17.4,4.21C414.25,67.86,400.62,93.64,372.58,93.64Z"/><path class="cls-1" d="M469.55,47.54H454.76a7,7,0,0,1,0-14h14.79a7,7,0,0,1,0,14Z"/><path class="cls-1" d="M469.55,63.87H454.76a7,7,0,0,1,0-14h14.79a7,7,0,0,1,0,14Z"/><path class="cls-1" d="M478.48,14.92h-8.9V7.6a7.6,7.6,0,1,0-15.19,0v7.32h-8.9a7.6,7.6,0,0,0,0,15.2h33a7.6,7.6,0,0,0,0-15.2Z"/><path class="cls-1" d="M535.57,60.65h-2.16V47.85h1.33a6.75,6.75,0,0,0,0-13.5h-1.33V19.42a52.74,52.74,0,0,0,6.91-5.18A7.6,7.6,0,1,0,530.23,2.87c-12.83,11.39-31.75,11.67-32.06,11.68a7.6,7.6,0,0,0,0,15.2,74.16,74.16,0,0,0,21.72-3.95V60.65l-3,0c-.67,0-1.8-.76-1.8-4.42V40.54a6.5,6.5,0,1,0-13,0V54.37c0,17.4,9,19.28,12.94,19.28h20.53a6.5,6.5,0,0,0,0-13Z"/><path class="cls-1" d="M537.11,78.41H512.57a13.41,13.41,0,0,1-11.82-6.71l-.09-.13a25.63,25.63,0,0,1-3.18-13.23V40.54a6.75,6.75,0,1,0-13.5,0V78.42L480.32,83a6.75,6.75,0,0,0,10.51,8.48l4.5-5.58a26.55,26.55,0,0,0,17.24,6h24.54a6.75,6.75,0,0,0,0-13.5Z"/><path class="cls-1" d="M651,77.62H624V32.34h24.11a8.25,8.25,0,0,0,0-16.5H624V8.66A7.93,7.93,0,0,0,616.05.73h0a7.93,7.93,0,0,0-7.94,7.93v7.18h-8.25A8.95,8.95,0,0,0,582.3,13c-1.18,4.24-6.21,17.28-13.72,21.49A8.95,8.95,0,0,0,573,51.24a8.84,8.84,0,0,0,4.36-1.15c7.41-4.15,12.68-11.23,16.23-17.75h14.56V45.81H591.93a8.25,8.25,0,0,0,0,16.5h16.18V77.62H581.57a8.25,8.25,0,0,0,0,16.5H651a8.25,8.25,0,0,0,0-16.5Z"/></g></g></svg>