<svg xmlns="http://www.w3.org/2000/svg" viewBox="0 0 39.54 40.47"><defs><style>.cls-1{fill:#acb1b9;}</style></defs><title>arrow</title><path class="cls-1" d="M37.54 18.24h-30.75l14.75-14.83a2 2 0 1 0-2.83-2.82l-18.15 18.24-.05.07a1 1 0 0 0-.17.24 1.32 1.32 0 0 0-.16.25.35.35 0 0 1 0 .08v.18s-.18.2-.18.35a2.81 2.81 0 0 0 0 .29 2.62 2.62 0 0 0 0 .28c0 .1 0 .2.08.3v.18a.35.35 0 0 1 0 .08 1.83 1.83 0 0 0 .16.26 1.24 1.24 0 0 0 .17.23l.05.08 18.25 18.18a2 2 0 0 0 1.42.59 2 2 0 0 0 1.41-.58 2 2 0 0 0 0-2.83l-14.75-14.82h30.75a2 2 0 0 0 0-4z"/></svg>