<svg width="14" height="17" viewBox="0 0 14 17" xmlns="http://www.w3.org/2000/svg" xmlns:xlink="http://www.w3.org/1999/xlink"><title>Group 6</title><desc>Created with Sketch.</desc><defs><path id="a" d="M0 .59h13.978v16.41h-13.978z"/></defs><g fill="none"><g transform="translate(0 -.59)"><mask id="b"><use xlink:href="#a"/></mask><path d="M7.013.591v-.001l-.024.001-.024-.001v.001c-2.856-.004-6.965 1.053-6.965 2.432v6.206c0 3.616 3.823 6.297 4.35 6.723.753.609 1.634 1.089 2.615 1.044v.004l.024-.002.024.002v-.004c.981.045 1.862-.435 2.615-1.044.527-.426 4.35-3.107 4.35-6.723v-6.206c0-1.379-4.109-2.436-6.965-2.432" fill="#42A4A3" mask="url(#b)"/></g><path d="M6.068 10.219c-.218 0-.437-.071-.619-.215l-2.037-1.606c-.434-.342-.509-.971-.166-1.405.342-.433.971-.506 1.404-.166l1.372 1.082 3.252-2.957c.41-.371 1.042-.34 1.413.068.371.409.341 1.041-.067 1.413l-3.879 3.526c-.191.173-.431.26-.673.26" fill="#FEFEFE"/></g></svg>