<svg xmlns="http://www.w3.org/2000/svg" viewBox="0 0 66.18 21.06"><defs><style>.cls-1{fill:#fff;}</style></defs><title>new</title><g><path class="cls-1" d="M34.42 12.8a2.27 2.27 0 0 0 0-4.54h-7.3v-3.72h7.3a2.27 2.27 0 0 0 0-4.54h-9.57a2.27 2.27 0 0 0-2.27 2.27v16.52a2.26 2.26 0 0 0 2.27 2.27h9.57a2.27 2.27 0 0 0 0-4.54h-7.3v-3.72zM15.75 0a2.27 2.27 0 0 0-2.27 2.27v10.17l-9.32-11.44a2.27 2.27 0 0 0-4.16 1.27v16.52a2.27 2.27 0 0 0 4.54 0v-10.17l9.32 11.43a2.27 2.27 0 0 0 4.14-1.26v-16.52a2.27 2.27 0 0 0-2.25-2.27zM66 3.14a2.27 2.27 0 0 0-3.7-2.48 2.34 2.34 0 0 0-.63 1.25l-2.67 9.78-4-10.25a2.25 2.25 0 0 0-2.14-1.44 2.25 2.25 0 0 0-2.09 1.44l-3.96 10.19-2.67-9.72a2.27 2.27 0 0 0-.63-1.25 2.27 2.27 0 0 0-3.7 2.48l4.46 16.25a2.24 2.24 0 0 0 1.35 1.5 2.32 2.32 0 0 0 .81.15 2.23 2.23 0 0 0 2.1-1.43l4.34-11.16 4.41 11.17a2.26 2.26 0 0 0 2.92 1.27 2.24 2.24 0 0 0 1.33-1.5z"/></g></svg>