<svg xmlns="http://www.w3.org/2000/svg" viewBox="0 0 48.01 47.45"><defs><style>.cls-1{fill:#babec4;}</style></defs><title>shop</title><path class="cls-1" d="M42.74 11.57h-7.25c0-5.34-3.01-11.57-11.49-11.57s-11.48 6.23-11.48 11.57h-7.25a5.27 5.27 0 0 0-5.27 5.27v19.39a11.22 11.22 0 0 0 11.22 11.22h25.57a11.22 11.22 0 0 0 11.21-11.22v-19.39a5.27 5.27 0 0 0-5.26-5.27zm-25.22 0c0-5.43 3.48-6.57 6.48-6.57 5.36 0 6.49 3.57 6.49 6.57h-13zm24.48 24.66a5.23 5.23 0 0 1-5.22 5.22h-25.56a5.22 5.22 0 0 1-5.22-5.22v-18.66h6.52v3.05a3.84 3.84 0 0 0-1.5 3 3.88 3.88 0 1 0 6.5-2.85v-3.2h13v3.24a3.89 3.89 0 1 0 5-.19v-3.05h6.48z"/></svg>