<svg xmlns="http://www.w3.org/2000/svg" viewBox="0 0 53.2 53.24"><defs><style>.cls-1{fill:url(#grad_17);}.cls-2{fill:url(#grad_19);}</style><linearGradient id="grad_17" x1="-2.25" y1="50.64" x2="41.08" y2="7.3" gradientUnits="userSpaceOnUse"><stop offset="0" stop-color="#ffc538"/><stop offset="1" stop-color="#fb468c"/></linearGradient><linearGradient id="grad_19" x1="22.92" y1="30.28" x2="48.27" y2="4.93" gradientUnits="userSpaceOnUse"><stop offset="0" stop-color="#ffc538"/><stop offset="1" stop-color="#ff7912"/></linearGradient></defs><title>super-like</title><g id="レイヤー_1-2"><path class="cls-1" d="M47.88 15.08c-1.47-3.47-5.78-7-12.26-7-8 0-10.41 5.09-10.41 5.09s-2.39-5.11-10.41-5.11c-6.47 0-10.79 3.55-12.25 7a20.28 20.28 0 0 0 3.7 20.59c1.08 1.26 2.19 2.46 3.3 3.58l-2.46 2.48-.83-.85c-3-3.11-4.91-1.94-5.7 1.62a43.17 43.17 0 0 0-.39 10.59 43.17 43.17 0 0 0 10.59-.39c3.56-.79 4.73-2.73 1.62-5.7l-.46-.45 2.66-2.67a70.34 70.34 0 0 0 10.63 7.46 74.51 74.51 0 0 0 19-15.65 20.3 20.3 0 0 0 3.67-20.59z"/><path class="cls-2" d="M52 9h-7.84v-7.83c-.42-1.67-2.48-1.24-3.1-.62l-7.74 7.74v7.23l-10.19 10.15a3.42 3.42 0 0 0 0 4.83 3.41 3.41 0 0 0 4.82 0l10.59-10.59h6.37l7.74-7.74c.62-.65 1.05-2.7-.65-3.17z"/></g></svg>