<svg xmlns="http://www.w3.org/2000/svg" xmlns:xlink="http://www.w3.org/1999/xlink" viewBox="0 0 59.88 54.57"><defs><style>.cls-1{fill:none;}.cls-2{clip-path:url(#clip-path);}.cls-3{fill:url(#grad);}</style><clipPath id="clip-path"><path class="cls-1" d="M45.15,3.25C35.94-1.35,24.5-1,16,4S-3.16,18.26.88,39.87a3.8,3.8,0,1,0,7.47-1.4C5.24,21.86,12.07,15.23,19.91,10.55a23.31,23.31,0,0,1,21.85-.5c8.35,4.17,10.55,13.55,10.52,18.44,0,4.65-2.46,11.58-5.94,14.09-7.11,5.12-13.67,5.75-20.06,1.93-8-4.8-5.75-15.57-5.66-16,0-.11.05-.23.07-.35a9.42,9.42,0,0,1,9.86-8h0c3.14,0,5.45.74,6.87,2.19,1.64,1.68,2,4.18,1.95,6-.24,2.42-1.66,5-3.89,5.07a3,3,0,0,1-2.36-.65A3.82,3.82,0,0,0,26,34.54a3.76,3.76,0,0,0,.79,2.3c.9,1.38,3.5,4.35,9,4.14C42.5,40.75,46.51,34.69,47,28.82a2,2,0,0,0,0-.23c.1-4.75-1.33-8.77-4.12-11.62s-7-4.47-12.28-4.48h-.06A17,17,0,0,0,13.17,27a28.19,28.19,0,0,0-.28,8.82c.85,6.75,4.13,12,9.49,15.22a23.76,23.76,0,0,0,12.24,3.54c4.75,0,10.21-1.54,16.16-5.83s9.07-13.58,9.1-20.22C59.92,20.27,56.09,8.7,45.15,3.25Z"/></clipPath><linearGradient id="grad" x1="1.33" y1="55.9" x2="58.55" y2="-1.33" gradientUnits="userSpaceOnUse"><stop offset="0.08" stop-color="#849bd3"/><stop offset="0.86" stop-color="#536aa0"/></linearGradient></defs><title>unlike</title><g id="layer_2" data-name="layer 2"><g id="layer_1-2" data-name="layer 1"><g class="cls-2"><rect class="cls-3" width="59.88" height="54.57"/></g></g></g></svg>